<svg xmlns="http://www.w3.org/2000/svg"  viewBox="0 0 48 48" width="48px" height="48px"><path d="M 8.28125 4 C 5.3824262 4 3 6.3824262 3 9.28125 A 1.50015 1.50015 0 0 0 3.0351562 9.6054688 C 3.0351562 9.6054688 4.7787853 17.623926 5.0039062 20.613281 C 5.2613294 24.038125 7.9255266 27 11.5 27 L 12.447266 27 L 9.4296875 28.59375 A 1.50015 1.50015 0 0 0 9.359375 28.634766 C 7.2310859 29.911465 6.2189689 32.475667 6.9003906 34.861328 A 1.50015 1.50015 0 0 0 6.90625 34.880859 C 7.7453403 37.816551 9.5541335 40.383093 12.039062 42.158203 L 12.517578 42.5 C 14.897252 44.199962 18.232463 43.722178 20.039062 41.421875 L 20.279297 41.117188 C 21.806865 39.173299 23.072393 37.041777 24.046875 34.777344 C 25.004787 37.031795 26.181508 39.185843 27.699219 41.117188 L 27.939453 41.421875 C 29.746052 43.722178 33.081264 44.199962 35.460938 42.5 L 35.939453 42.158203 C 38.424383 40.383093 40.235128 37.816551 41.074219 34.880859 A 1.50015 1.50015 0 0 0 41.082031 34.851562 L 41.085938 34.832031 L 41.078125 34.861328 C 41.759547 32.475667 40.74743 29.911465 38.619141 28.634766 A 1.50015 1.50015 0 0 0 38.550781 28.595703 L 35.537109 27 L 36.478516 27 C 40.052989 27 42.717186 24.038125 42.974609 20.613281 A 1.50015 1.50015 0 0 0 42.974609 20.611328 C 43.197921 17.634179 44.960937 9.8378906 44.960938 9.8378906 A 1.50015 1.50015 0 0 0 45 9.5 C 45 6.5911188 42.700974 4 39.697266 4 C 38.590268 4 37.511346 4.3474778 36.613281 4.9941406 L 34.421875 6.5722656 C 30.696068 9.2547016 26.624937 14.003428 24.033203 18.400391 C 21.431201 14.009431 17.273799 9.248475 13.556641 6.5722656 L 11.367188 4.9941406 A 1.50015 1.50015 0 0 0 11.365234 4.9941406 C 10.466326 4.3478425 9.3876439 4 8.28125 4 z M 6.9003906 34.861328 L 6.8925781 34.832031 L 6.8964844 34.851562 A 1.50015 1.50015 0 0 0 6.9003906 34.861328 z M 8.28125 7 C 8.7582225 7 9.2245462 7.1506997 9.6132812 7.4296875 L 11.802734 9.0058594 C 15.51026 11.675133 20.469723 17.66666 22.5 21.880859 L 22.5 30.207031 A 1.50015 1.50015 0 0 0 22.490234 30.285156 L 22.060547 31.572266 C 21.133098 34.354613 19.732246 36.957421 17.919922 39.263672 L 17.681641 39.568359 A 1.50015 1.50015 0 0 0 17.679688 39.568359 C 16.844286 40.632057 15.362045 40.844631 14.261719 40.058594 L 13.783203 39.716797 C 11.850133 38.335907 10.443925 36.340949 9.7910156 34.056641 A 1.50015 1.50015 0 0 0 9.7851562 34.037109 C 9.4735258 32.946089 9.926888 31.801785 10.896484 31.214844 L 19.201172 26.826172 A 1.50015 1.50015 0 0 0 18.5 24 L 11.5 24 C 9.5524734 24 8.1526708 22.469875 7.9960938 20.386719 C 7.7278798 16.825136 6.124795 9.6874606 6.0214844 9.2285156 C 6.0534387 7.9810704 7.0248611 7 8.28125 7 z M 39.697266 7 C 40.850863 7 41.941381 8.1997741 41.976562 9.4453125 C 41.864984 9.9208401 40.249844 16.823398 39.982422 20.388672 C 39.825096 22.470802 38.425416 24 36.478516 24 L 29.5 24 A 1.50015 1.50015 0 0 0 28.798828 26.826172 L 37.078125 31.210938 C 38.051174 31.796955 38.505525 32.944215 38.193359 34.037109 A 1.50015 1.50015 0 0 0 38.1875 34.060547 C 37.53406 36.343076 36.127181 38.336766 34.195312 39.716797 L 33.716797 40.058594 C 32.616471 40.844631 31.134229 40.632057 30.298828 39.568359 A 1.50015 1.50015 0 0 0 30.296875 39.568359 L 30.058594 39.263672 L 30.058594 39.261719 C 28.246849 36.955833 26.845245 34.354095 25.917969 31.572266 L 25.5 30.318359 L 25.5 21.853516 C 27.537218 17.640281 32.474601 11.670565 36.175781 9.0058594 L 38.367188 7.4296875 C 38.755122 7.1503503 39.218263 7 39.697266 7 z"/></svg>