<svg xmlns="http://www.w3.org/2000/svg" fill="none" viewBox="0 0 87 86">
  <g clip-path="url(#a)">
    <path
      fill="#000"
      d="m86.6 41.7.1 1.3v2.6c-.2.4-.2.8-.2 1.2l-.1 1.3-.7 4.1-1.2 4.2a41.1 41.1 0 0 1-30.4 28 47.4 47.4 0 0 0-4 .9H49l-3.8.4h-1.4l-1.3-.1h-1.3l-1-.1-1-.1-.7-.1h-.7l-2-.4-1.9-.3c-.8-.3-1.7-.4-2.5-.6a40 40 0 0 0-4.1-1.6l-1.6-.7a40 40 0 0 1-13-8.9 44.9 44.9 0 0 1-9.6-16l-.9-3a48865.9 48865.9 0 0 0-1-4.9l-.1-1.3-.1-1.1v-2.1c-.2-.5-.3-1.2-.3-2 0-1 .1-1.6.3-2v-2.5c.2-.5.2-1 .3-1.7l1-4.4A43 43 0 0 1 65.4 6.3l1 .4a53.7 53.7 0 0 1 5.3 4 9150.5 9150.5 0 0 0 2 1.7c1.1 1 2.2 2 3 3.3a25.2 25.2 0 0 0 2.4 2.9 44 44 0 0 1 4.5 8.3 87.4 87.4 0 0 0 2.4 8.7 99 99 0 0 1 .6 4.7v1.4Zm-7.9 6c.2-.8.2-1.6.2-2.5a33 33 0 0 0-.5-9.9 33.3 33.3 0 0 0-2.7-8c-.1-.7-.4-1.3-.8-2a93.5 93.5 0 0 0-5-7c-.4-.6-.9-1-1.4-1.4a35.3 35.3 0 0 0-17.8-9.6c-.5-.2-1-.2-1.5-.2l-1.4-.3h-1.1a8 8 0 0 0-2.4-.2h-2.4l-.6.1H41l-3.1.4L34 8a35.6 35.6 0 0 0-15.5 9 41.3 41.3 0 0 0-7.8 12.5c-.5 1.1-.8 2.3-1 3.6L8.9 37a64.9 64.9 0 0 1-.4 3v.9l-.1 2 .1 2 .1 1.1v1.2c.3.8.4 1.7.5 2.6 0 .9.2 1.7.4 2.5l.2.8a5511.8 5511.8 0 0 1 2 5.5 32.4 32.4 0 0 0 17.7 18 47.4 47.4 0 0 0 4 1.6 12216.2 12216.2 0 0 1 5.3 1.1c.5 0 1 0 1.6.2h.7l1.7.3 1.8-.1H46l2.8-.4a34 34 0 0 1 3.4-.7c1.1-.1 2.2-.4 3.3-.9l2.9-1.1a39.8 39.8 0 0 0 11.5-8.7 37 37 0 0 0 8.7-18.7v-.6l.1-1Zm-50.9-9v1.4a14.8 14.8 0 0 0 .3 7.3l.3 2a22.5 22.5 0 0 0 4.2 8 16.7 16.7 0 0 0 7.6 4.9l1.8.4.7.1a15 15 0 0 0 2 .3L46 63c.3-.1.6-.1.8 0 .3 0 .6 0 1-.2l1.4-.3c.6 0 1-.2 1.4-.3a13 13 0 0 0 7.2-6.3l.8-1.6.5-1.2c.1-.4.3-.6.6-.8.5-.4 1.3-.6 2.3-.8 1.2-.1 2 0 2.8.4.8.5 1 1.4.7 2.6a22.9 22.9 0 0 1-7.1 10.3A19.4 19.4 0 0 1 48 69a2 2 0 0 1-1.2.1c-.3 0-.6 0-1 .2H44l-1.6-.3h-.6a65.4 65.4 0 0 1-5.5-1.2 21.2 21.2 0 0 1-9.8-6.2A29.6 29.6 0 0 1 21 51.4a12 12 0 0 0-.5-2.3l-.2-1.8a8 8 0 0 0-.2-2v-1c-.2-.8-.2-1.5 0-2.3v-2.4c.2-.3.2-1 .2-1.8L21 35c.1-1 .4-2 .8-2.8 1.4-3.4 3.3-6.2 5.5-8.5a23.5 23.5 0 0 1 11.3-5.8l3-.6h1.3c.7 0 1.1 0 1.3-.2 4.6 0 8.4.7 11.4 2.4a19.3 19.3 0 0 1 9.7 11.2l.3 1.2-.1 1.1c-.3.5-.7.8-1.3 1-.5.3-1.1.4-1.8.4l-1.9-.4c-.6-.2-1-.5-1.2-.9l-1-1.7-1-1.8a12.5 12.5 0 0 0-5.6-5l-2-.5-1.9-.6c-1-.2-2.2-.3-3.6-.2-1.5 0-2.6.3-3.4.6l-1.2.3a3 3 0 0 0-1.1.2 18 18 0 0 0-10 11.9 36 36 0 0 1-.7 2.4Z"
    />
    <mask id="b" width="77" height="77" x="6" y="4" maskUnits="userSpaceOnUse" style="mask-type:alpha">
      <circle cx="44.5" cy="42.5" r="38.5" fill="#D9D9D9" />
    </mask>
    <g mask="url(#b)">
      <path
        fill="#000"
        d="M74.3 8.9c.8.2 1.6.5 2.3.9.7.4 1.1 1 1.2 1.6.1.7-.2 1.4-1 2l-1.5 1.7a91.5 91.5 0 0 0-4 4.3l-4 4.3A71.8 71.8 0 0 0 63 28l-4.3 4.4-10.5 11a355 355 0 0 1-15 15.7 206 206 0 0 1-8.9 9.3 58.3 58.3 0 0 1-6.1 6.6c-.6.8-1.3 1.2-2.1 1.4a6 6 0 0 1-2.8-.3 5 5 0 0 1-2.6-1.4c-.3-.4-.5-.8-.5-1.3 0-.4.1-.8.4-1.2a62.3 62.3 0 0 0 2-2.3 329 329 0 0 1 11.4-12c4.5-4.5 8.8-9.1 13.1-13.8a715.2 715.2 0 0 1 17.1-18l3.9-4a105 105 0 0 0 4.6-4.8 90 90 0 0 1 4.7-4.9c.7-.6 1.4-1.4 2-2.2.8-.9 1.6-1.4 2.4-1.6.3-.1.8 0 1.6 0 .1 0 .3 0 .3.2h.5Z"
      />
    </g>
  </g>
  <defs>
    <clipPath id="a">
      <path fill="#fff" d="M0 0h87v86H0z" />
    </clipPath>
  </defs>
</svg>
