<svg width="48" height="53" viewBox="0 0 48 53" fill="currentColor" xmlns="http://www.w3.org/2000/svg">
<path d="M28.0792 6.61938C29.1744 8.4543 30.2592 10.188 31.256 11.9668C31.6512 12.6718 32.1328 12.9015 32.956 12.8951C37.372 12.8613 41.7888 12.8806 46.2048 12.8935C46.3976 12.8941 46.5904 12.905 46.796 12.9216C47.3674 12.968 47.7165 13.6017 47.446 14.1071C47.3839 14.2231 47.3223 14.3336 47.2576 14.4425C45.08 18.1003 42.928 21.7734 40.6872 25.3958C40.1512 26.2615 40.188 26.8814 40.7088 27.7254C42.9224 31.3142 45.0584 34.9455 47.2168 38.5647C47.2918 38.6906 47.3627 38.8187 47.4348 38.9548C47.7014 39.458 47.3599 40.0923 46.7926 40.1414C46.6178 40.1565 46.4501 40.1662 46.2824 40.1668C41.8664 40.1836 37.4496 40.2101 33.0336 40.1724C32.1528 40.1644 31.6656 40.4109 31.2312 41.1561C29.2208 44.6083 27.1432 48.0244 25.0808 51.4485C24.9569 51.654 24.8231 51.854 24.6749 52.0681C24.3599 52.5232 23.6724 52.5369 23.3464 52.0897C23.2286 51.9282 23.1221 51.7737 23.0256 51.614C20.9176 48.116 18.8 44.6228 16.7416 41.0983C16.332 40.3972 15.8672 40.1676 15.0464 40.1732C10.6304 40.2045 6.2136 40.1796 1.7976 40.174C1.63027 40.1737 1.46293 40.1736 1.28338 40.1736C0.704773 40.1737 0.289563 39.5663 0.537962 39.0437C0.587679 38.9391 0.639089 38.8404 0.696 38.7446C2.9144 35.0105 5.1216 31.2692 7.3968 27.5664C7.8752 26.7883 7.8312 26.227 7.368 25.4729C5.1624 21.8802 3.0192 18.2521 0.858398 14.6344C0.76192 14.4728 0.669164 14.3091 0.572152 14.1337C0.296882 13.636 0.616507 12.9942 1.18168 12.9301C1.36472 12.9094 1.53881 12.8959 1.7128 12.8951C5.9936 12.8782 10.276 12.826 14.5552 12.9111C15.8296 12.936 16.4584 12.5016 17.044 11.4825C18.9896 8.09454 21.0424 4.76277 23.0632 1.41494C23.1514 1.26904 23.2483 1.12791 23.3607 0.972785C23.6971 0.508555 24.4083 0.544409 24.705 1.03501C25.8782 2.97517 26.9622 4.76704 28.0792 6.61938ZM26.704 16.0646C29.3542 20.4867 32.0043 24.9094 34.7419 29.4762C35.0527 29.9947 35.8043 29.9943 36.1147 29.4756C38.8527 24.8994 41.5087 20.4595 44.1954 15.9698C44.5145 15.4365 44.1302 14.7589 43.5088 14.7589C38.0526 14.7589 32.733 14.7589 27.332 14.7589C26.7194 14.7589 26.3342 15.419 26.6387 15.9506C26.6599 15.9877 26.6817 16.0257 26.704 16.0646ZM14.656 14.6529C11.3041 14.6529 7.95152 14.6529 4.43441 14.6529C3.8128 14.6529 3.42865 15.331 3.74812 15.8642C6.49499 20.4489 9.15684 24.8917 11.8945 29.4618C12.2051 29.9803 12.9566 29.9804 13.2672 29.4619C16.0226 24.8629 18.6838 20.4208 21.4081 15.8742C21.7275 15.3411 21.3436 14.6631 20.722 14.6629C18.6651 14.6622 16.751 14.6608 14.656 14.6529ZM27.9112 33.7305C23.9489 33.7305 19.9872 33.7305 15.8634 33.7305C15.2416 33.7305 14.8575 34.409 15.1774 34.9422C17.9401 39.5473 20.5947 43.9727 23.3202 48.5156C23.6309 49.0336 24.3817 49.0335 24.6924 48.5155C27.4372 43.9382 30.1005 39.4956 32.8305 34.942C33.1502 34.4087 32.7661 33.7305 32.1444 33.7305C30.732 33.7305 29.3983 33.7305 27.9112 33.7305ZM28.9368 29.9121C27.5608 29.101 26.1944 28.2747 24.8008 27.4909C24.4888 27.3159 23.9656 27.0999 23.7392 27.2267C21.9697 28.2183 20.2187 29.2401 18.383 30.3166C17.6791 30.7294 17.9726 31.8096 18.7886 31.8096C22.2992 31.8096 25.7082 31.8096 29.2048 31.8096C30.0198 31.8096 30.3136 30.7327 29.6133 30.3159C29.3922 30.1843 29.1682 30.0506 28.9368 29.9121ZM30.4464 25.8969C29.0947 23.6486 27.7425 21.3997 26.3905 19.1511C25.9996 18.501 25.0562 18.7148 25.0274 19.4729C24.9769 20.8061 24.9883 22.1148 24.8928 23.4164C24.7816 24.9381 25.256 25.8479 26.708 26.5707C28.6576 27.5406 30.4778 28.7482 32.3484 29.8616C32.4306 29.9106 32.5357 29.8964 32.6022 29.8275V29.8275C32.667 29.7604 32.6788 29.6581 32.6309 29.578C31.9314 28.4073 31.229 27.2314 30.4464 25.8969ZM23.0984 19.198C23.0984 18.589 23.0984 17.9799 23.0984 17.3715C23.0984 17.2766 23.0323 17.1945 22.9396 17.1741V17.1741C22.8552 17.1554 22.7685 17.193 22.7241 17.2671C20.2681 21.3681 17.8129 25.4691 15.3577 29.5709C15.306 29.6572 15.3227 29.768 15.3974 29.8354V29.8354C15.4662 29.8976 15.5673 29.9079 15.6472 29.8608C18.0252 28.456 20.4146 27.0661 22.7616 25.6159C23.0048 25.4657 23.0768 24.9405 23.0832 24.5872C23.116 22.8727 23.0976 21.1582 23.0984 19.198ZM8.176 38.417C9.97396 38.417 11.7719 38.417 13.7061 38.417C14.3296 38.417 14.7135 37.7351 14.3901 37.202C13.8337 36.2849 13.3108 35.4231 12.7864 34.5591C12.559 34.1845 12.0725 34.0626 11.6953 34.2857C9.48855 35.591 7.40116 36.8262 5.31555 38.06C5.23999 38.1047 5.20423 38.195 5.22897 38.2793V38.2793C5.25289 38.3607 5.32769 38.4162 5.41259 38.4163C6.24647 38.417 7.09313 38.417 8.176 38.417ZM33.7592 36.9659C33.7355 37.0089 33.7118 37.0518 33.6882 37.0948C33.3942 37.6283 33.7803 38.2821 34.3894 38.2821C36.3131 38.2821 38.2002 38.2821 40.1528 38.2821C40.9685 38.2821 41.261 37.2041 40.5571 36.7917C39.1027 35.9396 37.7116 35.1245 36.3077 34.302C35.9313 34.0815 35.4475 34.2032 35.2203 34.5756C34.7372 35.3672 34.2791 36.1171 33.7592 36.9659ZM39.6451 29.6216C39.3386 29.1308 38.6286 29.1208 38.3064 29.6014C37.8698 30.2526 37.4277 30.9118 36.9696 31.5945C36.7141 31.9754 36.8303 32.4929 37.2243 32.7277C39.3652 34.0037 41.3987 35.215 43.4303 36.4253C43.4925 36.4623 43.5714 36.4555 43.6263 36.4084V36.4084C43.6887 36.3547 43.7032 36.2638 43.6607 36.1934C42.3543 34.0302 41.0462 31.865 39.6451 29.6216ZM5.3904 34.4315C5.04653 35.0318 4.70336 35.6328 4.36024 36.2332C4.32002 36.3036 4.3431 36.3932 4.41231 36.4354V36.4354C4.45983 36.4643 4.51949 36.4645 4.56722 36.4359C6.61598 35.2076 8.66532 33.9789 10.7611 32.7232C11.141 32.4956 11.2637 32.0027 11.0349 31.6235C10.5997 30.9024 10.1808 30.2084 9.74429 29.4851C9.43275 28.9688 8.68373 28.9697 8.37331 29.4866C7.37072 31.1561 6.41737 32.7416 5.3904 34.4315ZM22.9133 5.741C22.7246 5.68334 22.5551 5.83607 22.4537 6.00529C21.3519 7.84435 20.2492 9.685 19.126 11.5604C18.8067 12.0936 19.1909 12.7714 19.8124 12.7714C20.6556 12.7714 21.4614 12.7714 22.2776 12.7714C22.7194 12.7714 23.0776 12.4132 23.0777 11.9713C23.0782 9.88656 23.0793 7.87626 23.0616 5.86534C23.0612 5.81627 23.0011 5.76783 22.9133 5.741ZM24.9664 7.10361C24.9664 8.71951 24.9664 10.3354 24.9664 12.0003C24.9664 12.4421 25.3246 12.8003 25.7664 12.8003C26.5841 12.8003 27.3863 12.8003 28.2212 12.8003C28.8429 12.8003 29.2271 12.1222 28.9074 11.589C27.676 9.53531 26.4862 7.55191 25.2977 5.56931C25.2573 5.50195 25.1774 5.46921 25.1013 5.48858V5.48858C25.0221 5.50873 24.9664 5.57986 24.9664 5.66158C24.9664 6.07182 24.9664 6.49995 24.9664 7.10361Z" fill="currentColor"/>
</svg>
