<svg width="64" height="64" viewBox="0 0 64 64" fill="none" xmlns="http://www.w3.org/2000/svg">
<path d="M36.4191 10.119C37.6056 12.0924 38.7808 13.957 39.8607 15.8699C40.2888 16.6282 40.8105 16.8752 41.7023 16.8683C46.4863 16.832 51.2712 16.8527 56.0552 16.8665C56.6142 16.8683 57.1723 16.9495 58 17.016C57.6551 17.6697 57.4471 18.1128 57.1957 18.5325C54.8367 22.4664 52.5053 26.4166 50.0778 30.3125C49.4971 31.2435 49.537 31.9102 50.1012 32.8179C52.4993 36.6775 54.8133 40.5829 57.1515 44.4753C57.4098 44.9054 57.6221 45.3596 57.9792 46.0376C57.2269 46.1058 56.6835 46.1965 56.1393 46.1982C51.3553 46.2164 46.5704 46.2449 41.7864 46.2043C40.8322 46.1956 40.3044 46.4608 39.8338 47.2622C37.6559 50.975 35.4051 54.6489 33.1709 58.3315C32.8649 58.835 32.5035 59.3082 32.0277 60C31.5727 59.3782 31.2209 58.9636 30.9444 58.5094C28.6607 54.7474 26.3667 50.9905 24.1367 47.2C23.693 46.4461 23.1895 46.1991 22.3003 46.2051C17.5163 46.2388 12.7314 46.212 7.9474 46.206C7.42393 46.2051 6.90047 46.206 6.05807 46.206C6.36313 45.5229 6.51307 45.0712 6.754 44.6687C9.15727 40.6528 11.5484 36.6291 14.0132 32.6469C14.5315 31.81 14.4838 31.2064 13.982 30.3954C11.5926 26.5315 9.2708 22.6296 6.92993 18.7389C6.6474 18.2691 6.39433 17.7829 6 17.0755C6.77133 16.9857 7.31387 16.8709 7.85553 16.8683C12.4931 16.8501 17.1323 16.794 21.7681 16.8855C23.1487 16.9123 23.8299 16.4451 24.4643 15.3491C26.5721 11.7054 28.7959 8.12223 30.9851 4.52173C31.2391 4.10459 31.5597 3.72373 32.0858 3C33.6241 5.52614 34.9969 7.77763 36.4191 10.119ZM34.9293 20.277C38.0398 25.4295 41.1503 30.5828 44.3812 35.933C47.8791 30.1294 51.2409 24.5503 54.6633 18.8728C47.7127 18.8728 40.9925 18.8728 34.1242 18.8728C34.4163 19.3858 34.6217 19.7442 34.9293 20.277ZM21.8773 18.7588C17.7633 18.7588 13.6483 18.7588 9.27427 18.7588C12.7799 24.5676 16.1383 30.132 19.6292 35.9175C23.147 30.0888 26.5053 24.5235 29.9781 18.77C27.1423 18.7691 24.6567 18.7691 21.8773 18.7588ZM36.2371 39.2762C31.4566 39.2762 26.6769 39.2762 21.6546 39.2762C25.1854 45.1187 28.5325 50.658 32.0069 56.4073C35.5091 50.6097 38.8718 45.041 42.3532 39.2762C40.216 39.2762 38.3726 39.2762 36.2371 39.2762ZM37.3482 35.1696C35.8575 34.2973 34.3773 33.4086 32.8675 32.5657C32.5295 32.3775 31.9627 32.1451 31.7175 32.2816C28.9355 33.8292 26.1959 35.4451 23.1565 37.2104C29.1911 37.2104 34.8219 37.2104 40.8201 37.2104C39.5045 36.4417 38.5139 35.8622 37.3482 35.1696ZM38.9836 30.8514C37.0908 27.7259 35.1971 24.5995 33.3043 21.474C33.0071 23.7774 33.1293 25.99 32.9672 28.1836C32.8467 29.8202 33.3607 30.7987 34.9337 31.576C37.0986 32.6452 39.1162 33.983 41.1962 35.205C41.2768 35.1221 41.3574 35.0392 41.438 34.9563C40.6511 33.6487 39.8641 32.342 38.9836 30.8514ZM31.0233 23.647C31.0233 22.9336 31.0233 22.2202 31.0233 21.5077C30.9149 21.4844 30.8066 21.4602 30.6983 21.4369C27.9787 25.9451 25.2599 30.4533 22.5412 34.9623C22.6296 35.0418 22.718 35.1204 22.8055 35.1998C25.4298 33.66 28.0679 32.1382 30.6584 30.5491C30.9219 30.3876 30.9999 29.8228 31.0068 29.4428C31.0423 27.599 31.0224 25.7551 31.0233 23.647ZM14.8573 44.3164C17.2736 44.3164 19.6899 44.3164 22.3878 44.3164C21.3053 42.545 20.3728 41.019 19.4073 39.4403C16.6921 41.0345 14.1562 42.5243 11.6195 44.0141C11.6489 44.1151 11.6784 44.2153 11.7087 44.3155C12.6629 44.3164 13.6171 44.3164 14.8573 44.3164ZM42.5725 42.7558C42.3159 43.2178 42.0603 43.679 41.7864 44.1713C45.4273 44.1713 48.8731 44.1713 52.6925 44.1713C49.7927 42.4846 47.236 40.9974 44.5987 39.4636C43.9019 40.5975 43.2918 41.5899 42.5725 42.7558ZM48.2405 33.7368C47.3651 35.0331 46.4898 36.3295 45.5408 37.7329C48.1911 39.3012 50.6767 40.7711 53.1623 42.241C53.2342 42.1797 53.307 42.1175 53.3789 42.0562C51.7193 39.328 50.0596 36.5989 48.2405 33.7368ZM11.8396 40.0301C11.4409 40.721 11.0431 41.4128 10.6453 42.1037C10.7181 42.1478 10.7909 42.1918 10.8637 42.2359C13.3537 40.7539 15.8436 39.2719 18.4037 37.7493C17.5171 36.2906 16.7276 34.9925 15.8124 33.4864C14.4448 35.7474 13.202 37.8045 11.8396 40.0301ZM30.4955 9.17587C28.9892 11.6718 27.4829 14.1677 25.9342 16.7353C27.7499 16.7353 29.3263 16.7353 31.0007 16.7353C31.0007 14.1832 31.0051 11.746 30.9834 9.308C30.9825 9.20436 30.7321 9.10332 30.4955 9.17587ZM33.0469 10.6397C33.0469 12.6546 33.0469 14.6695 33.0469 16.7664C34.7361 16.7664 36.3073 16.7664 38.1031 16.7664C36.4599 14.045 34.8955 11.4567 33.3321 8.86754C33.2367 8.89172 33.1423 8.91591 33.0469 8.93923C33.0469 9.42805 33.0469 9.91687 33.0469 10.6397Z" fill="#1A1B26"/>
</svg>
