<svg xmlns="http://www.w3.org/2000/svg" fill="none" viewBox="0 0 103 103">
  <g clip-path="url(#a)">
    <path fill="#1A1B26" d="M51.5 103a51.5 51.5 0 1 0 0-103 51.5 51.5 0 0 0 0 103Z"/>
    <g clip-path="url(#b)">
      <path fill="#A8B1D6" d="M58.52 15.62c1.88 3.26 3.75 6.34 5.46 9.5.68 1.25 1.51 1.66 2.93 1.65 7.6-.06 15.2-.03 22.8 0 .33 0 .66.02 1.01.05.98.08 1.59 1.2 1.12 2.1l-.32.6c-3.75 6.5-7.45 13.03-11.31 19.46-.92 1.54-.86 2.64.04 4.14 3.8 6.38 7.48 12.83 11.2 19.26.12.23.25.45.37.7.46.9-.13 2.02-1.1 2.1-.3.03-.6.05-.88.05-7.6.03-15.2.08-22.8.01-1.51-.01-2.35.42-3.1 1.75-3.46 6.13-7.03 12.2-10.58 18.29l-.7 1.1a1.4 1.4 0 0 1-2.29.04c-.2-.29-.38-.56-.55-.85-3.63-6.21-7.27-12.42-10.81-18.68-.7-1.25-1.5-1.66-2.92-1.65-7.6.06-15.2.01-22.8 0h-.88c-1 0-1.71-1.08-1.28-2 .08-.2.17-.37.27-.54 3.82-6.63 7.61-13.28 11.53-19.86.82-1.38.75-2.38-.05-3.72-3.8-6.38-7.48-12.83-11.2-19.26l-.5-.89c-.47-.88.08-2.03 1.05-2.14.32-.04.62-.06.92-.06 7.36-.03 14.73-.12 22.1.03 2.19.04 3.27-.73 4.28-2.54 3.35-6.02 6.88-11.94 10.35-17.9.16-.25.32-.5.52-.78.58-.82 1.8-.76 2.31.11l5.8 9.93ZM56.15 32.4l13.83 23.83c.53.92 1.83.92 2.36 0l13.9-24c.56-.95-.1-2.15-1.17-2.15H57.22c-1.05 0-1.72 1.17-1.2 2.12l.12.2Zm-20.73-2.5H17.83c-1.07 0-1.73 1.2-1.18 2.14l14.02 24.17c.53.92 1.82.92 2.36 0l14-24.15c.56-.94-.1-2.15-1.17-2.15-3.54 0-6.84 0-10.44-.02Zm22.8 33.9H37.5c-1.07 0-1.73 1.2-1.18 2.15l14 24.12c.54.92 1.83.92 2.37 0l14-24.12c.55-.95-.11-2.16-1.18-2.16h-7.28ZM60 57c-2.37-1.43-4.72-2.9-7.12-4.3-.53-.3-1.43-.69-1.82-.46a537.68 537.68 0 0 0-9.22 5.49c-1.2.73-.7 2.65.7 2.65h17.92c1.4 0 1.91-1.91.7-2.65L60 57Zm2.6-7.13-7-11.97c-.67-1.16-2.3-.78-2.35.57-.08 2.37-.06 4.7-.23 7-.19 2.7.63 4.33 3.13 5.61 3.35 1.72 6.48 3.87 9.7 5.85.14.09.32.06.44-.06a.4.4 0 0 0 .05-.45c-1.2-2.08-2.41-4.17-3.76-6.54Zm-12.64-11.9v-3.25a.36.36 0 0 0-.28-.35.34.34 0 0 0-.37.17A108428 108428 0 0 0 36.63 56.4a.38.38 0 0 0 .06.47c.12.11.3.13.43.05 4.1-2.5 8.2-4.97 12.25-7.55.41-.26.54-1.2.55-1.82.06-3.05.02-6.1.03-9.58ZM24.27 72.12h9.51c1.08 0 1.74-1.21 1.18-2.16l-2.76-4.7a1.35 1.35 0 0 0-1.88-.48l-10.97 6.7a.35.35 0 0 0-.15.4c.04.14.17.24.31.24h4.76Zm44.02-2.58-.12.23c-.5.95.16 2.11 1.2 2.11h9.92c1.4 0 1.9-1.91.7-2.65l-7.32-4.42a1.35 1.35 0 0 0-1.87.48 2890 2890 0 0 1-2.51 4.25ZM78.42 56.5a1.35 1.35 0 0 0-2.3-.03 278 278 0 0 0-2.3 3.54c-.45.67-.25 1.6.43 2.01l10.68 6.57c.1.07.24.06.34-.03a.3.3 0 0 0 .06-.38c-2.25-3.84-4.5-7.7-6.91-11.68Zm-58.94 8.55-1.78 3.2a.27.27 0 0 0 .1.36c.07.05.18.05.26 0L28.72 62c.65-.4.86-1.28.47-1.95l-2.22-3.8a1.35 1.35 0 0 0-2.36 0l-5.13 8.79Zm30.15-50.98c-.33-.1-.62.16-.8.47l-5.72 9.87c-.55.94.11 2.15 1.18 2.15h4.24a1.4 1.4 0 0 0 1.38-1.42c0-3.7 0-7.28-.03-10.85 0-.09-.1-.18-.25-.22Zm3.53 2.42v8.7c0 .78.62 1.42 1.38 1.42h4.22c1.07 0 1.73-1.2 1.18-2.15l-6.21-10.7a.3.3 0 0 0-.34-.14.32.32 0 0 0-.23.3v2.57Z"/>
    </g>
  </g>
  <defs>
    <clipPath id="a">
      <path fill="#fff" d="M0 0h103v103H0z"/>
    </clipPath>
    <clipPath id="b">
      <path fill="#fff" d="M0 0h81v92H0z" transform="translate(11 5)"/>
    </clipPath>
  </defs>
</svg>
