<svg width="64" height="64" viewBox="0 0 64 64" fill="none" xmlns="http://www.w3.org/2000/svg">
<g clip-path="url(#clip0_18_2)">
<circle cx="32" cy="32" r="32" fill="#C0CAF5"/>
<path d="M35.6755 14.1981C36.6624 15.8469 37.6398 17.4048 38.538 19.0031C38.8941 19.6367 39.328 19.8431 40.0697 19.8373C44.0487 19.807 48.0285 19.8243 52.0075 19.8359C52.4724 19.8373 52.9366 19.9051 53.625 19.9607C53.3381 20.5069 53.1651 20.8771 52.9561 21.2278C50.994 24.5147 49.0549 27.8152 47.0359 31.0703C46.5529 31.8482 46.5861 32.4053 47.0553 33.1636C49.0499 36.3884 50.9745 39.6515 52.9193 42.9037C53.1341 43.263 53.3107 43.6426 53.6077 44.209C52.982 44.266 52.5301 44.3418 52.0774 44.3433C48.0984 44.3584 44.1186 44.3822 40.1396 44.3483C39.346 44.3411 38.907 44.5626 38.5156 45.2323C36.7042 48.3344 34.8322 51.404 32.9738 54.4809C32.7194 54.9016 32.4188 55.297 32.0231 55.875C31.6446 55.3555 31.352 55.0091 31.122 54.6295C29.2226 51.4863 27.3146 48.3474 25.4599 45.1803C25.0908 44.5504 24.672 44.344 23.9324 44.349C19.9534 44.3772 15.9737 44.3548 11.9947 44.3497C11.5593 44.349 11.1239 44.3497 10.4233 44.3497C10.677 43.779 10.8017 43.4016 11.0021 43.0653C13.001 39.7099 14.9898 36.348 17.0398 33.0208C17.4709 32.3216 17.4312 31.8172 17.0139 31.1396C15.0265 27.9112 13.0954 24.651 11.1485 21.4003C10.9135 21.0077 10.703 20.6015 10.375 20.0105C11.0165 19.9354 11.4678 19.8395 11.9183 19.8373C15.7755 19.8222 19.6341 19.7753 23.4898 19.8517C24.6381 19.8741 25.2047 19.4837 25.7324 18.568C27.4854 15.5236 29.3351 12.5298 31.1559 9.52144C31.3671 9.17292 31.6338 8.8547 32.0714 8.25C33.3508 10.3607 34.4926 12.2418 35.6755 14.1981ZM34.4364 22.6854C37.0235 26.9904 39.6106 31.2962 42.2978 35.7664C45.2071 30.9173 48.0032 26.2559 50.8498 21.5121C45.0687 21.5121 39.4794 21.5121 33.7668 21.5121C34.0097 21.9407 34.1805 22.2402 34.4364 22.6854ZM23.5807 21.4169C20.1589 21.4169 16.7364 21.4169 13.0983 21.4169C16.0141 26.2703 18.8073 30.9195 21.7108 35.7534C24.6367 30.8834 27.4299 26.2335 30.3183 21.4263C27.9597 21.4255 25.8924 21.4255 23.5807 21.4169ZM35.5242 38.5597C31.548 38.5597 27.5726 38.5597 23.3954 38.5597C26.3321 43.4413 29.1159 48.0695 32.0058 52.8732C34.9187 48.0291 37.7155 43.3763 40.6111 38.5597C38.8335 38.5597 37.3003 38.5597 35.5242 38.5597ZM36.4483 35.1285C35.2084 34.3997 33.9772 33.6572 32.7216 32.9529C32.4404 32.7956 31.969 32.6015 31.765 32.7155C29.4511 34.0086 27.1726 35.3587 24.6446 36.8337C29.6638 36.8337 34.347 36.8337 39.3359 36.8337C38.2417 36.1914 37.4178 35.7073 36.4483 35.1285ZM37.8085 31.5206C36.2342 28.9091 34.6592 26.297 33.0849 23.6856C32.8376 25.61 32.9392 27.4587 32.8045 29.2916C32.7043 30.659 33.1317 31.4766 34.44 32.126C36.2407 33.0193 37.9188 34.1371 39.6488 35.1581C39.7158 35.0889 39.7828 35.0196 39.8499 34.9503C39.1954 33.8578 38.5408 32.7661 37.8085 31.5206ZM31.1876 25.5011C31.1876 24.905 31.1876 24.309 31.1876 23.7137C31.0975 23.6942 31.0074 23.674 30.9173 23.6545C28.6553 27.4212 26.3941 31.1879 24.1328 34.9554C24.2063 35.0217 24.2799 35.0874 24.3527 35.1538C26.5354 33.8672 28.7296 32.5958 30.8841 31.268C31.1033 31.1331 31.1682 30.6612 31.1739 30.3437C31.2035 28.8031 31.1869 27.2625 31.1876 25.5011ZM17.7419 42.7709C19.7516 42.7709 21.7613 42.7709 24.0052 42.7709C23.1049 41.2909 22.3293 40.0159 21.5263 38.6968C19.2679 40.0289 17.1588 41.2736 15.0489 42.5183C15.0734 42.6028 15.0979 42.6865 15.1231 42.7702C15.9168 42.7709 16.7104 42.7709 17.7419 42.7709ZM40.7934 41.467C40.5801 41.853 40.3674 42.2384 40.1396 42.6497C43.1679 42.6497 46.0339 42.6497 49.2106 42.6497C46.7987 41.2404 44.6723 39.9978 42.4788 38.7163C41.8992 39.6637 41.3917 40.4928 40.7934 41.467ZM45.5077 33.9314C44.7797 35.0145 44.0516 36.0976 43.2623 37.2702C45.4666 38.5806 47.534 39.8088 49.6013 41.0369C49.6611 40.9857 49.7217 40.9337 49.7815 40.8825C48.4011 38.603 47.0207 36.3228 45.5077 33.9314ZM15.232 39.1897C14.9004 39.7669 14.5695 40.3449 14.2387 40.9222C14.2992 40.959 14.3598 40.9958 14.4203 41.0326C16.4913 39.7943 18.5622 38.5561 20.6916 37.2839C19.9542 36.0652 19.2975 34.9806 18.5363 33.7222C17.3988 35.6113 16.3651 37.3301 15.232 39.1897ZM30.7486 13.4101C29.4958 15.4955 28.243 17.5809 26.9549 19.7262C28.465 19.7262 29.7762 19.7262 31.1689 19.7262C31.1689 17.5939 31.1725 15.5576 31.1545 13.5205C31.1537 13.4339 30.9454 13.3495 30.7486 13.4101ZM32.8708 14.6332C32.8708 16.3167 32.8708 18.0001 32.8708 19.7522C34.2757 19.7522 35.5825 19.7522 37.0761 19.7522C35.7094 17.4784 34.4083 15.3158 33.1079 13.1525C33.0286 13.1727 32.9501 13.1929 32.8708 13.2124C32.8708 13.6208 32.8708 14.0292 32.8708 14.6332Z" fill="#1A1B26"/>
</g>
<defs>
<clipPath id="clip0_18_2">
<rect width="64" height="64" rx="32" fill="white"/>
</clipPath>
</defs>
</svg>
