<svg xmlns="http://www.w3.org/2000/svg" fill="none" viewBox="0 0 647 238">
  <g fill="#000" clip-path="url(#a)">
    <path d="M14 7h64l2 1 1 2v13l-1 1v1l-4 1H33l-1 3v19l2 1 2 1h37c1 1 2 2 1 4v10l-1 2-4 1H36c-2 0-3 0-4 2v34l-1 4-1 1-1 1H13l-2-1-1-2V9l3-2h1Zm166 98v2l-1 1-2 1-3-1h-12l-3-1-1-5a29 29 0 0 0-1-6v-5l-1-3v-5l-1-3-3-6-4-4h-3l-6-1h-20l-2 1-1 4v32l-2 2h-10l-5 1-4-1-1-3V11l1-2 2-2h50a60 60 0 0 1 11 1l2 1h2l6 4a22 22 0 0 1 6 7l1 2 2 4a471 471 0 0 0 2 7v4l-1 2v4a212 212 0 0 1-4 9l-1 1-1 1-1 1-2 1-2 2-1 1-1 1 1 1 1 1 3 3 2 2 3 5 2 6v10l1 1v9l1 2v3l1 2Zm-24-64v-4a20 20 0 0 0-1-5c-1-3-3-5-6-6l-6-2h-24l-2 2-1 3v20l1 2 2 2a23 23 0 0 0 6 0h20l2-1 4-2 3-2 1-3 1-4Zm127 61v1l1 2v2l-1 1-4 1-4-1h-7l-2 1-2-1-2-1-1-3-1-2a85 85 0 0 0-4-12v-2l-2-1-2-1h-31l-4 1-1 2-1 3-2 5a54 54 0 0 1-5 11h-2l-3 1h-3a37 37 0 0 0-8 0l-3-1-1-1v-2a45 45 0 0 1 1-3l3-7a519 519 0 0 1 13-35l6-16a319 319 0 0 1 17-37h16l3 1 2 2a76 76 0 0 0 3 8l2 5v2l1 1a137 137 0 0 1 4 12 260 260 0 0 1 11 30l1 1 1 4 2 5 1 2 1 2a178 178 0 0 1 7 20Zm-37-33 2-2-1-4v-1l-1-1a171 171 0 0 1-7-19v-2l-1-2-1-2-1-1-1 1-2 4-1 4a119 119 0 0 0-7 19l-1 3v2l2 1h20Zm92-64a42 42 0 0 1 43 24 51 51 0 0 1 2 8v2l-1 1-2 1h-12a192 192 0 0 1-5-1l-2-3-1-3-7-7-7-3-6-1a25 25 0 0 0-8 1l-2 1c-7 3-11 7-14 14l-1 3a91 91 0 0 1-2 6 81 81 0 0 0-1 12v2l1 1v4a174 174 0 0 0 1 5c2 4 3 8 6 11a25 25 0 0 0 11 8 116 116 0 0 1 5 1h8a99 99 0 0 0 6-2l5-3 5-6 1-3 1-3 1-3 2-2h18l1 2v3l-1 4a199 199 0 0 1-5 13 41 41 0 0 1-26 17l-3 1h-5l-2 1h-5l-2-1h-4a133 133 0 0 0-5-1l-2-1-3-1-2-1c-6-2-11-5-15-10a52 52 0 0 1-14-33V53l1-2a2230 2230 0 0 1 3-15l1-4 2-3a62 62 0 0 1 6-9l2-2a43 43 0 0 1 17-10l3-1a45 45 0 0 1 9-2h4Zm58 2h75l3 1 1 1v14c0 1-1 2-3 2l-5 1h-19c-2 0-3 1-3 2v3a12 12 0 0 0 0 4v67l-1 4-1 2h-18l-2-1V30l-1-2c0-1-1-2-3-2h-22l-3-1-1-1-1-2V10l2-2 1-1h1Zm164 95v1l1 2v2l-1 1-4 1-4-1h-7l-2 1-2-1-2-1-1-3-1-2a86 86 0 0 0-4-12v-2l-2-1-2-1h-31l-4 1-1 2-1 3-2 5a54 54 0 0 1-5 11h-2l-3 1h-3a37 37 0 0 0-8 0l-3-1-1-1v-2a45 45 0 0 1 1-3l3-7a491 491 0 0 1 13-35l6-16a318 318 0 0 1 17-37h16l3 1 2 2a78 78 0 0 0 3 8l2 5v2l1 1a140 140 0 0 1 4 12 260 260 0 0 1 11 30l1 1 1 4 2 5 1 2 1 2a178 178 0 0 1 7 20Zm-37-33 2-2-1-4v-1l-1-1a172 172 0 0 1-7-19v-2l-1-2-1-2-1-1-1 1-2 4-1 4a119 119 0 0 0-6 16 34 34 0 0 0-2 6v2l2 1h20Zm52-62h16l2 1 1 3v68l-1 2 1 2v5l4 2h43l1 1 1 2v13l-1 2h-68l-2-1-1-2V11l1-2 2-2h1ZM56 117c10 0 19 1 26 5a44 44 0 0 1 18 20 54 54 0 0 1 3 8v3l-1 1-2 1H88a212 212 0 0 1-6-1l-2-3-1-3c-2-3-4-6-8-8l-7-3-6-1a26 26 0 0 0-9 2h-2c-6 3-11 8-14 14l-1 4a95 95 0 0 1-2 6 84 84 0 0 0-1 13v3l1 1v3a180 180 0 0 0 1 6l6 10a26 26 0 0 0 12 9 121 121 0 0 1 5 1h8a103 103 0 0 0 6-2l6-4 4-5 2-3 1-4 1-3 2-2h19l1 3v3l-1 4a208 208 0 0 1-6 12 43 43 0 0 1-27 19l-3 1h-5l-2 1h-5l-2-1h-4a129 129 0 0 0-5-1l-3-1-3-1-2-1c-6-3-11-6-15-10a54 54 0 0 1-15-35v-11l1-2v-5l1-2a80 80 0 0 0 2-8l1-4 2-4a64 64 0 0 1 7-9l2-2a45 45 0 0 1 17-11l3-1a47 47 0 0 1 10-2h4Zm164 52v11a18 18 0 0 1-1 5v2a346 346 0 0 1-3 10c-3 7-7 13-12 18a52 52 0 0 1-22 11l-4 1h-3l-5 1h-4l-1-1h-3a22 22 0 0 0-5 0 2062 2062 0 0 1-11-4c-6-3-11-6-15-10a54 54 0 0 1-15-34v-14l1-2v-3l2-5 1-5 2-5 3-5a48 48 0 0 1 35-23h6a54 54 0 0 1 32 9 50 50 0 0 1 17 20l1 4a99 99 0 0 1 3 10v2l1 2v5Zm-23 6v-9a22 22 0 0 1-1-5v-1l-1-3-1-4c-3-5-6-9-10-12a27 27 0 0 0-21-4 39 39 0 0 0-6 1l-10 8a40 40 0 0 0-6 15l-1 3v5a11 11 0 0 0-1 6v1l1 2v1a472 472 0 0 0 1 8l4 9 6 7 2 1 2 1 3 2a208 208 0 0 0 9 1h8l3-1c4-2 8-4 10-7a33 33 0 0 0 7-14l1-4 1-3v-4Zm43-56h16l2 1 1 4v66l1 3 1 4 4 6c1 2 4 3 7 4h2a20 20 0 0 1 4 1h9l3-1 3-1 4-3 4-5 2-9v-65l1-3 2-2h17l2 2 1 3v54a400 400 0 0 1-1 21l-6 12-8 8a41 41 0 0 1-14 7h-4l-2 1a41 41 0 0 1-8 0c-10 0-18-1-24-3-7-3-12-7-16-12a35 35 0 0 1-6-14l-1-10v-67l3-2h1Zm111 0h15l3 1 2 2 1 2 6 8a251492 251492 0 0 0 35 54l1-1v-61l1-3 2-2h15l2 1 2 2v99l-1 2-1 2h-20l-3-2-1-3-3-4-3-5-22-35a188 188 0 0 0-12-18l-2 3v59l-1 4-2 1h-16l-2-3V121l2-2h2Zm101 0h79l3 1v1l1 2v13l-3 2-6 1h-20l-3 3v2a13 13 0 0 0 0 4v74l-2 3h-18l-2-1-1-3v-79l-3-3h-23l-3-1-2-1-1-2v-13l2-2 2-1Zm89 0h17l3 1 3 3 2 3a170 170 0 0 1 10 16l3 6a94 94 0 0 0 5 9l3 1h1l2-2 2-4 3-4a541 541 0 0 0 18-28l4-1h13a19 19 0 0 1 5 1v2l-1 2-3 6a437 437 0 0 1-26 43 286 286 0 0 1-7 13v34c0 2 0 4-2 4l-2 1h-16a3 3 0 0 1-3-3v-38l-2-4-2-3a192 192 0 0 0-10-16 402 402 0 0 1-21-42h1Z"/>
  </g>
  <defs>
    <clipPath id="a">
      <path fill="#fff" d="M0 0h647v238H0z"/>
    </clipPath>
  </defs>
</svg>
